<?xml version="1.0" encoding="utf-8"?>
<!-- Svg Vector Icons : http://www.onlinewebfonts.com/icon -->
<!DOCTYPE svg PUBLIC "-//W3C//DTD SVG 1.1//EN" "http://www.w3.org/Graphics/SVG/1.1/DTD/svg11.dtd">
<svg version="1.1" xmlns="http://www.w3.org/2000/svg" xmlns:xlink="http://www.w3.org/1999/xlink" x="0px" y="0px" viewBox="0 0 256 256" enable-background="new 0 0 256 256" xml:space="preserve">
<metadata> Svg Vector Icons : http://www.onlinewebfonts.com/icon </metadata>
<g><g><g><path fill="#000000" d="M223.1,164.1c-0.6,0-1.2-0.1-1.7-0.4c-0.5-0.3-0.9-0.7-1.2-1.2c-0.3-0.5-0.4-1.1-0.4-1.7V151h-52.5v-6.6h32.8v-13.1h-26.2v-17.9c0-3.2-0.6-5.4-1.8-6.6c-1.2-1.2-3.5-1.7-6.7-1.7h-6.2l-9.8-26.2H217c-2.3-9.8-3.8-15.4-4.5-17.1c-1-1.8-2.3-2.6-3.9-2.6h-59.3c-1.6,0-2.9,0.9-3.9,2.6c-0.2,0.5-0.6,1.2-1.1,2.1c-0.5,0.9-0.9,1.7-1.3,2.3l-0.5,1c-3.6-2.5-7.1-4.2-10.5-5.3l2.9-5.8c1.2-2.5,2.4-4.4,3.6-5.7c1.2-1.3,2.7-2.4,4.6-3.2c1.9-0.8,4.3-1.2,7.1-1.2h57.6c2,0,3.7,0.1,5.1,0.4c1.4,0.3,2.6,0.6,3.5,1.1c0.9,0.4,1.8,1.1,2.6,2c0.8,0.9,1.5,1.9,2,2.7c0.5,0.9,1.2,2.1,2,3.8l7.5,16.2h12.5c0.9,0,1.7,0.3,2.3,0.9c0.6,0.6,0.9,1.4,0.9,2.3v6.5c0,0.9-0.3,1.7-0.9,2.3c-0.6,0.6-1.4,0.9-2.3,0.9h-6l2.7,6.6v68.8c0,0.9-0.3,1.7-0.9,2.3c-0.6,0.6-1.4,0.9-2.3,0.9L223.1,164.1L223.1,164.1z M19.8,210c-0.9,0-1.7-0.3-2.3-0.9c-0.6-0.6-0.9-1.4-0.9-2.3v-75.4l2.7-6.6h-6c-0.9,0-1.7-0.3-2.3-0.9c-0.6-0.6-0.9-1.4-0.9-2.3v-6.6c0-0.9,0.3-1.7,0.9-2.3c0.6-0.6,1.4-0.9,2.3-0.9h12.5l10.7-29.3c1.3-2.7,2.6-4.7,3.7-6s2.7-2.3,4.5-3c1.8-0.7,4.1-1,7-1h74c2.9,0,5.2,0.3,7,1c1.8,0.7,3.3,1.7,4.5,3s2.4,3.3,3.7,6l10.7,29.3H164c0.9,0,1.7,0.3,2.3,0.9c0.6,0.6,0.9,1.4,0.9,2.3v6.6c0,0.9-0.3,1.7-0.9,2.3s-1.4,0.9-2.3,0.9h-6l2.7,6.6v75.4c0,0.9-0.3,1.7-0.9,2.3c-0.6,0.6-1.4,0.9-2.3,0.9h-13.1c-0.9,0-1.7-0.3-2.3-0.9c-0.6-0.6-0.9-1.4-0.9-2.3v-9.8H36.2v9.8c0,0.9-0.3,1.7-0.9,2.3c-0.6,0.6-1.4,0.9-2.3,0.9H19.8z M39.1,118.2h99.1c-4.5-18.5-7.1-28.5-7.8-30.2c-1-1.8-2.3-2.6-3.9-2.6H50.8c-1.6,0-2.9,0.9-3.9,2.6c-0.4,0.7-1.2,3.6-2.5,8.6c-1.3,5-2.5,9.9-3.6,14.5L39.1,118.2z M213.2,118.2h13.1l6.6-6.6V97.8l-19.7,7.2L213.2,118.2L213.2,118.2z M29.7,157.5h19.7v-13.1l-26.2-7.2V151L29.7,157.5z M128,157.5h19.7l6.6-6.6v-13.8l-26.2,7.2V157.5z M62.5,183.7h52.5v-13.1H62.5V183.7z"/></g></g></g>
</svg>