<?xml version="1.0" encoding="utf-8"?>
<!-- Svg Vector Icons : http://www.onlinewebfonts.com/icon -->
<!DOCTYPE svg PUBLIC "-//W3C//DTD SVG 1.1//EN" "http://www.w3.org/Graphics/SVG/1.1/DTD/svg11.dtd">
<svg version="1.1" xmlns="http://www.w3.org/2000/svg" xmlns:xlink="http://www.w3.org/1999/xlink" x="0px" y="0px" viewBox="0 0 256 256" enable-background="new 0 0 256 256" xml:space="preserve">
<metadata> Svg Vector Icons : http://www.onlinewebfonts.com/icon </metadata>
<g><g><path fill="#000000" d="M131.6,75.1h-11.1V97h11.1V75.1z M51.3,124.1l18.6,12l6-8.7l-18.6-12L51.3,124.1z M39,168.1h22.4V158H39V168.1z M130.2,168.4l57.6-68.6l-69.5,56.4L130.2,168.4z M174.7,89.8l-8.8-6.6l-12.6,17.3l8.8,6.6L174.7,89.8z M128,46.1c-65.2,0-118,51.7-118,115.5c0,15.2,8.6,48.4,8.6,48.4h213.7v-0.1h2.8c7-14.7,10.9-30.9,10.9-48.2C246,97.8,193.2,46.1,128,46.1z M225.1,194.6H29.7c-3.1-9.4-5-22.7-5-33.1C24.7,107,72.4,59.9,128,59.9s103.9,47.3,103.9,101.8C231.9,172.1,228.2,185.2,225.1,194.6z M181.3,125.5l6,9.3l18.2-11.5l-6-9.3L181.3,125.5z M196.3,168h21.8v-10.3h-21.8V168z M77.8,90.8l13.7,17.3l8.4-6.6L86.2,84.2L77.8,90.8z M131.2,176.4l-21.9-19.7l21.9-16.3c-1.4-0.3-2.9-0.5-4.5-0.5c-11.9,0-21.5,9.4-21.5,21.1s9.6,21.1,21.5,21.1c11.9,0,21.5-9.4,21.5-21.1c0-2.1-0.4-4-1-5.9L131.2,176.4z"/></g></g>
</svg>