<svg width="15" height="15" viewBox="0 0 15 15" fill="none" xmlns="http://www.w3.org/2000/svg">
<g id="SVG">
<path id="Vector" d="M14.0916 0.420166H5.53604C5.32108 0.420166 5.14714 0.594109 5.14714 0.809067C5.14714 1.02403 5.32108 1.19797 5.53604 1.19797H13.1528L0.59441 13.7564C0.442488 13.9083 0.442488 14.1544 0.59441 14.3063C0.670353 14.3822 0.769884 14.4202 0.869379 14.4202C0.968874 14.4202 1.06837 14.3822 1.14435 14.3063L13.7027 1.74787V9.36464C13.7027 9.5796 13.8766 9.75354 14.0916 9.75354C14.3066 9.75354 14.4805 9.5796 14.4805 9.36464V0.809067C14.4805 0.594109 14.3065 0.420166 14.0916 0.420166Z" fill="white"/>
</g>
</svg>
